<svg xmlns="http://www.w3.org/2000/svg" width="32.647" height="48.453" viewBox="0 0 32.647 48.453"><g transform="translate(5.678 4.732)"><path d="M151.641,59.115l-.469-5.625a.71.71,0,0,0-.707-.651h-.71v-.71a2.129,2.129,0,1,0-4.259,0v.71h-.71a.71.71,0,0,0-.706.639l-.568,5.678a.71.71,0,0,0,.706.78h6.721a.71.71,0,0,0,.71-.71A.726.726,0,0,0,151.641,59.115Zm-4.725-6.986a.71.71,0,1,1,1.42,0v.71h-1.42ZM145,58.517l.426-4.259h4.383l.355,4.259Z" transform="translate(-143.51 -50)"/></g><g transform="translate(0)"><path d="M116.153,6.317c0-.017,0-.034-.008-.051s0-.012,0-.018-.009-.04-.015-.059l0-.008c-.006-.02-.013-.039-.021-.058l0-.007c-.008-.018-.016-.036-.025-.053l0-.009c-.009-.016-.018-.032-.028-.047l-.008-.012c-.01-.015-.021-.029-.032-.043L116,5.937c-.015-.018-.03-.035-.047-.052L110.271.208q-.025-.025-.052-.047L110.2.151c-.014-.011-.027-.021-.041-.031L110.15.112,110.1.084l-.011-.005c-.017-.009-.034-.017-.052-.025l-.008,0c-.019-.008-.038-.015-.058-.021l-.009,0c-.019-.006-.039-.011-.059-.015l-.018,0L109.84,0a.68.68,0,0,0-.071,0H84.219a.71.71,0,0,0-.71.71V43.624a.71.71,0,0,0,.71.71h16.088a.71.71,0,1,0,0-1.42H84.929V1.42h24.13V6.388a.71.71,0,0,0,.71.71h4.968V42.914h-4.02a.71.71,0,1,0,0,1.42h4.73a.71.71,0,0,0,.71-.71V6.388A.7.7,0,0,0,116.153,6.317Zm-5.674-.639V2.423l3.254,3.255Z" transform="translate(-83.509)"/></g><g transform="translate(5.678 20.204)"><path d="M164.089,213.493H144.217a.71.71,0,1,0,0,1.42h19.872a.71.71,0,1,0,0-1.42Z" transform="translate(-143.507 -213.493)"/></g><g transform="translate(5.678 23.99)"><path d="M164.089,253.5H144.217a.71.71,0,1,0,0,1.42h19.872a.71.71,0,1,0,0-1.42Z" transform="translate(-143.507 -253.502)"/></g><g transform="translate(5.678 27.775)"><path d="M164.089,293.5H144.217a.71.71,0,1,0,0,1.42h19.872a.71.71,0,1,0,0-1.42Z" transform="translate(-143.507 -293.501)"/></g><g transform="translate(5.678 31.561)"><path d="M152.733,333.5h-8.517a.71.71,0,1,0,0,1.42h8.517a.71.71,0,1,0,0-1.42Z" transform="translate(-143.507 -333.501)"/></g><g transform="translate(17.034 33.453)"><path d="M273.444,358.47a4.968,4.968,0,1,0-8.044,3.9v5.424c0,.008,0,.015,0,.022s0,.029,0,.043,0,.02,0,.03,0,.026.006.039,0,.021.007.032.006.024.009.035.007.022.011.033.008.022.012.032.01.022.015.033l.014.03.02.034.016.026c.008.012.016.023.025.035l.013.019,0,0a.7.7,0,0,0,.051.056l.016.014c.013.012.026.024.04.035l.026.019.035.025.028.017.039.021.027.013.044.018.024.009.051.014.021.005c.019,0,.039.007.058.01l.016,0c.023,0,.047,0,.071,0h.008a.719.719,0,0,0,.1-.008l.021,0a.7.7,0,0,0,.1-.025l.017-.006a.709.709,0,0,0,.1-.044l0,0a.693.693,0,0,0,.094-.063l.006,0,1.922-1.538,1.922,1.538.006,0a.711.711,0,0,0,.094.063l0,0a.7.7,0,0,0,.1.044l.017.006a.7.7,0,0,0,.1.025l.021,0a.708.708,0,0,0,.1.008h.008c.024,0,.047,0,.071,0l.016,0,.059-.01.02-.005.052-.014.024-.009.045-.018.027-.013.039-.021.028-.017.035-.025.026-.019c.014-.011.027-.023.04-.035l.016-.014a.706.706,0,0,0,.051-.056l0,0,.013-.018c.009-.011.017-.023.025-.035l.016-.026.02-.034c.005-.01.01-.02.014-.029s.01-.022.015-.034.008-.022.012-.032.008-.022.011-.033.006-.024.009-.035.005-.021.007-.032,0-.026.006-.039,0-.02,0-.03,0-.029,0-.043,0-.015,0-.022v-5.424A4.962,4.962,0,0,0,273.444,358.47Zm-4.515,6.883h0l-.01-.008-.016-.011-.038-.028-.023-.014-.036-.021-.03-.014-.032-.014-.035-.013-.029-.01-.037-.01-.029-.007-.037-.006-.031,0-.034,0h-.065l-.039,0-.026,0-.042.007-.025.006-.042.011-.026.009-.038.014-.03.013-.032.015-.035.02-.024.015-.038.028-.016.011-.01.008h0l-1.2.962v-3.161a4.956,4.956,0,0,0,3.312,0v3.161Zm-.454-3.334a3.549,3.549,0,1,1,3.549-3.549A3.553,3.553,0,0,1,268.475,362.019Z" transform="translate(-263.507 -353.502)"/></g><g transform="translate(19.873 36.292)"><path d="M295.637,383.5a2.129,2.129,0,1,0,2.129,2.129A2.132,2.132,0,0,0,295.637,383.5Zm0,2.839a.71.71,0,1,1,.71-.71A.711.711,0,0,1,295.637,386.34Z" transform="translate(-293.508 -383.501)"/></g></svg>