<svg xmlns="http://www.w3.org/2000/svg" width="48.453" height="48.453" viewBox="0 0 48.453 48.453"><g transform="translate(13.817 35.015)"><path d="M146.945,370a.946.946,0,1,0,.946.946A.947.947,0,0,0,146.945,370Z" transform="translate(-145.999 -370.002)"/></g><g transform="translate(0 0)"><path d="M42.6,17.983l5.577-5.577a.946.946,0,0,0-.39-1.573L34.205,6.641a9.465,9.465,0,0,0-17.812-.713l-15.73,4.9a.946.946,0,0,0-.387,1.573L6,18.129,2.39,24.146A.946.946,0,0,0,2.9,25.531l5.236,1.745V41.831a.946.946,0,0,0,.614.886c3.2,1.2,15.1,5.661,15.159,5.684a.943.943,0,0,0,.605.008l.008,0L41.56,42.728a.946.946,0,0,0,.647-.9V26.886l5.583-1.755a.946.946,0,0,0,.386-1.572ZM34.636,9.466c0-.24-.01-.48-.028-.72l11.119,3.432L41,16.9l-7.715-2.572A9.491,9.491,0,0,0,34.636,9.466ZM18.011,7A7.571,7.571,0,0,1,32.743,9.466a7.57,7.57,0,0,1-7.571,7.571A7.577,7.577,0,0,1,18.011,7ZM2.722,12.174,15.81,8.093a9.542,9.542,0,0,0-.1,1.372A9.407,9.407,0,0,0,16.758,13.8l-9.31,3.1Zm1.9,11.934L7.613,19.12l15.195,5.065-2.992,4.987ZM23.28,46.143,10.031,41.175V27.907c10.424,3.456,9.915,3.351,10.205,3.351a.947.947,0,0,0,.812-.46l2.232-3.72Zm.946-23.48-14.042-4.68,7.646-2.549a9.461,9.461,0,0,0,14.259.489l6.178,2.059ZM40.314,41.149,25.172,46.2V26.358l3.355,4.193a.947.947,0,0,0,1.023.312l10.764-3.383ZM29.6,28.864l-3.788-4.734L41,19.065l4.728,4.728Z" transform="translate(0 -0.002)"/></g><g transform="translate(17.39 36.266)"><path d="M187.14,384.069l-2.1-.789a.946.946,0,0,0-.665,1.772l2.1.789a.946.946,0,0,0,.665-1.772Z" transform="translate(-183.757 -383.219)"/></g><g transform="translate(13.816 38.969)"><path d="M152.952,413.969l-5.678-2.129a.946.946,0,0,0-.665,1.772l5.678,2.129a.946.946,0,1,0,.665-1.772Z" transform="translate(-145.995 -411.779)"/></g><g transform="translate(21.387 5.678)"><path d="M235.184,60.278a.946.946,0,0,0-1.338,0l-5.009,5.009-1.224-1.224a.946.946,0,0,0-1.338,1.338l1.893,1.893a.946.946,0,0,0,1.338,0l5.678-5.678A.946.946,0,0,0,235.184,60.278Z" transform="translate(-225.998 -60.001)"/></g></svg>