<svg xmlns="http://www.w3.org/2000/svg" width="52.634" height="29.826" viewBox="0 0 52.634 29.826"><g transform="translate(15.738 17.268)"><g transform="translate(0 0)"><rect width="2" height="2" transform="translate(-0.399 -0.055)"/></g></g><g transform="translate(15.738 21.155)"><g transform="translate(0 0)"><rect width="2" height="2" transform="translate(-0.399 0.058)"/></g></g><g transform="translate(15.738 24.487)"><g transform="translate(0 0)"><rect width="2" height="2" transform="translate(-0.399 -0.274)"/></g></g><g transform="translate(15.738 13.936)"><g transform="translate(0 0)"><rect width="2" height="1" transform="translate(-0.399 0.278)"/></g></g><g transform="translate(15.738 10.604)"><g transform="translate(0 0)"><rect width="2" height="2" transform="translate(-0.399 -0.39)"/></g></g><g transform="translate(15.738 7.272)"><g transform="translate(0 0)"><rect width="2" height="2" transform="translate(-0.399 -0.058)"/></g></g><g transform="translate(15.738 3.384)"><g transform="translate(0 0)"><rect width="2" height="2" transform="translate(-0.399 -0.171)"/></g></g><g transform="translate(3.521 3.384)"><g transform="translate(0 0)"><rect width="2" height="2" transform="translate(-0.181 -0.171)"/></g></g><g transform="translate(47.393 3.384)"><g transform="translate(0 0)"><rect width="2" height="2" transform="translate(-0.054 -0.171)"/></g></g><g transform="translate(47.393 24.487)"><g transform="translate(0 0)"><rect width="2" height="2" transform="translate(-0.054 -0.274)"/></g></g><g transform="translate(3.521 24.487)"><g transform="translate(0 0)"><rect width="2" height="2" transform="translate(-0.181 -0.274)"/></g></g><g transform="translate(0 0)"><path d="M51.756,114.527a.877.877,0,0,0,.877-.877v-8.772a.877.877,0,0,0-.877-.877H.877a.877.877,0,0,0-.877.877v8.772a.877.877,0,0,0,.877.877,4.386,4.386,0,1,1,0,8.772.877.877,0,0,0-.877.877v8.772a.877.877,0,0,0,.877.877H51.756a.877.877,0,0,0,.877-.877v-8.772a.877.877,0,0,0-.877-.877,4.386,4.386,0,1,1,0-8.772Zm-6.083,5.259a6.141,6.141,0,0,0,5.206,5.206v7.08H1.754v-7.08a6.141,6.141,0,0,0,0-12.157v-7.08H50.879v7.08A6.141,6.141,0,0,0,45.673,119.785Z" transform="translate(0 -104)"/></g><g transform="translate(22.808 6.141)"><path d="M211.509,160a3.509,3.509,0,1,0,3.509,3.509A3.509,3.509,0,0,0,211.509,160Zm0,5.263a1.754,1.754,0,1,1,1.754-1.754A1.754,1.754,0,0,1,211.509,165.263Z" transform="translate(-208 -160)"/></g><g transform="translate(33.335 16.667)"><path d="M307.509,256a3.509,3.509,0,1,0,3.509,3.509A3.509,3.509,0,0,0,307.509,256Zm0,5.263a1.754,1.754,0,1,1,1.754-1.754A1.754,1.754,0,0,1,307.509,261.263Z" transform="translate(-304 -256)"/></g><g transform="translate(23.942 7.273)"><g transform="translate(0 0)"><rect width="19.849" height="1.754" transform="translate(0 14.035) rotate(-45)"/></g></g></svg>