<svg xmlns="http://www.w3.org/2000/svg" width="52.841" height="52.841" viewBox="0 0 52.841 52.841"><path d="M48.217,121.527l-6.455-1.49v-1.678a6.862,6.862,0,0,0,1.635-1.9h.922a4.266,4.266,0,0,0,4.261-4.261,4.22,4.22,0,0,0-.852-2.531v-3.435a10.227,10.227,0,1,0-20.454,0v3.435a4.222,4.222,0,0,0-.852,2.531,4.266,4.266,0,0,0,4.261,4.261H31.6a6.849,6.849,0,0,0,1.635,1.9v1.678l-6.455,1.49a5.937,5.937,0,0,0-1.215.434v-4.654a2.56,2.56,0,0,0-2.557-2.557H2.557A2.56,2.56,0,0,0,0,117.307v15.341A2.56,2.56,0,0,0,2.557,135.2H9.375v1.7h-1.7v1.7h45.17V127.34a5.938,5.938,0,0,0-4.624-5.813Zm-14.319.108,2.078,1.558-2.1,1.261-.452-2.71Zm2.682,6.751h1.842l.71,8.523H35.87Zm2.01-1.7H36.409l-.489-1.468,1.58-.948,1.579.948Zm.436-3.488,2.078-1.558.6.139-.541,2.7Zm5.293-8.444h-.224a6.778,6.778,0,0,0,.224-1.7v-3.409a2.557,2.557,0,1,1,0,5.114ZM37.5,97.7a8.532,8.532,0,0,1,8.523,8.523v2.066a4.218,4.218,0,0,0-1.7-.361v-1.7h-1.7v.476a5,5,0,0,1-2.057,1.072c.033-.032.07-.06.1-.093l-1.205-1.205a4.987,4.987,0,0,1-2.307,1.3c.033-.032.07-.06.1-.093l-1.205-1.205a5,5,0,0,1-3.512,1.455h-.146v-1.7h-1.7v1.7a4.218,4.218,0,0,0-1.7.361v-2.066A8.532,8.532,0,0,1,37.5,97.7ZM30.682,114.75a2.557,2.557,0,1,1,0-5.114v3.409a6.778,6.778,0,0,0,.224,1.7Zm1.7-1.7v-3.409h.146a6.661,6.661,0,0,0,2.41-.461v.461h1a6.661,6.661,0,0,0,2.41-.461v.461h1a6.708,6.708,0,0,0,3.263-.862v4.271a5.089,5.089,0,0,1-.3,1.7H37.5v1.7h3.8a5.106,5.106,0,0,1-8.915-3.409Zm5.114,6.818a6.771,6.771,0,0,0,2.557-.5v.928L37.5,122.207l-2.557-1.918v-.928A6.771,6.771,0,0,0,37.5,119.863Zm-10.334,3.325,4.592-1.059L32.6,127.2l1.82-1.092.509,1.526-.773,9.271H29.83v-9.375h-1.7v9.375H23.864v-1.861a2.553,2.553,0,0,0,1.7-2.4v-8.707a4.261,4.261,0,0,1,1.6-.753ZM16.193,135.2h5.966v1.7H16.193ZM2.557,133.5a.853.853,0,0,1-.852-.852V117.307a.853.853,0,0,1,.852-.852H23.012a.853.853,0,0,1,.852.852v15.341a.853.853,0,0,1-.852.852H16.193v-1.7a3.409,3.409,0,1,0-6.818,0v1.7Zm8.523-1.7a1.7,1.7,0,1,1,3.409,0v5.114H11.08Zm40.057,5.114H46.875v-9.375h-1.7v9.375h-4.33l-.772-9.271.508-1.526,1.783,1.07,1-5.025,4.469,1.031a4.242,4.242,0,0,1,3.3,4.152Zm0,0" transform="translate(0 -85.773)"/><path d="M71.341,46.012a2.553,2.553,0,0,0-1.748-2.425l-3.366-1.122V41.353a4.244,4.244,0,0,0,1.7-3.387v-1.7a4.261,4.261,0,0,0-8.523,0v1.7a4.242,4.242,0,0,0,1.7,3.387v1.112l-3.366,1.122A2.554,2.554,0,0,0,56,46.012V50.75H71.341ZM61.113,36.261a2.557,2.557,0,1,1,5.114,0v1.7a2.557,2.557,0,1,1-5.114,0Zm8.523,12.784H57.7V46.012a.85.85,0,0,1,.583-.809l4.531-1.509V42.141a4.259,4.259,0,0,0,1.7,0v1.553L69.053,45.2a.852.852,0,0,1,.583.809Zm0,0" transform="translate(-50.034 -28.591)"/><path d="M13.636,27.273A13.636,13.636,0,1,0,0,13.636,13.652,13.652,0,0,0,13.636,27.273Zm0-25.568A11.932,11.932,0,1,1,1.7,13.636,11.945,11.945,0,0,1,13.636,1.7Zm0,0"/><path d="M296,48h1.7v1.7H296Zm0,0" transform="translate(-264.466 -42.886)"/><path d="M344,48h1.7v1.7H344Zm0,0" transform="translate(-307.352 -42.886)"/><path d="M392,48h1.7v1.7H392Zm0,0" transform="translate(-350.239 -42.886)"/></svg>