<svg xmlns="http://www.w3.org/2000/svg" width="50.526" height="50.514" viewBox="0 0 50.526 50.514"><path d="M46.635,49.9V20.12A3.258,3.258,0,0,0,49.93,14.5L28.2,1.535a3.835,3.835,0,0,0-3.865,0L2.6,14.5a3.262,3.262,0,0,0-1.143,4.466,3.254,3.254,0,0,0,4.434,1.159V35.229H5.074A2.448,2.448,0,0,0,2.63,37.673V49.082a2.417,2.417,0,0,0,.15.815H1v1.63H51.524V49.9ZM2.857,18.131A1.632,1.632,0,0,1,3.431,15.9L25.165,2.935a2.174,2.174,0,0,1,2.194,0L49.1,15.9a1.632,1.632,0,0,1,.57,2.234,1.677,1.677,0,0,1-2.231.571L28.194,7.238a3.777,3.777,0,0,0-3.863,0L5.091,18.7a1.674,1.674,0,0,1-2.234-.571Zm4.662,1.022L25.164,8.639a2.177,2.177,0,0,1,2.2,0L45.005,19.152V49.9h-3.26V22.19H10.779V35.229H7.519ZM26.262,40.118H22.188V37.673a2.441,2.441,0,0,0-1.63-2.295V32.784a.815.815,0,0,1,.815-.815h2.445v3.26h4.889v-3.26h2.445a.815.815,0,0,1,.815.815V39.3a.815.815,0,0,1-.815.815H26.262Zm-.815-8.149h1.63V33.6h-1.63ZM33.6,41.748h1.63v1.63H33.6Zm-.15-1.63a2.417,2.417,0,0,0,.15-.815V32.784a2.448,2.448,0,0,0-2.445-2.445H21.373a2.448,2.448,0,0,0-2.445,2.445v2.445H12.409V28.709H40.116V40.268a2.417,2.417,0,0,0-.815-.15ZM40.116,27.08H12.409V23.82H40.116ZM10.779,36.858h3.26v3.26h-3.26ZM5.074,49.9a.815.815,0,0,1-.815-.815V37.673a.815.815,0,0,1,.815-.815H9.149v4.889h6.519V36.858h4.075a.815.815,0,0,1,.815.815V49.082a.815.815,0,0,1-.815.815Zm16.963,0a2.417,2.417,0,0,0,.15-.815V41.748h4.075a.815.815,0,0,1,.815.815v6.519a.815.815,0,0,1-.815.815Zm7.484,0a.815.815,0,0,1-.815-.815V42.563a.815.815,0,0,1,.815-.815h2.445v3.26h4.889v-3.26H39.3a.815.815,0,0,1,.815.815v6.519a.815.815,0,0,1-.815.815Z" transform="translate(-0.999 -1.013)"/><path d="M36.409,15H25v8.149H36.409Zm-1.63,3.26h-3.26V16.63h3.26Zm-4.889-1.63v1.63H26.63V16.63Zm-3.26,3.26h3.26v1.63H26.63Zm4.889,1.63v-1.63h3.26v1.63Z" transform="translate(-5.441 -3.602)"/><path d="M17,57h1.63v1.63H17Z" transform="translate(-3.961 -11.375)"/><path d="M13,57h1.63v1.63H13Z" transform="translate(-3.22 -11.375)"/><path d="M21,57h1.63v1.63H21Z" transform="translate(-4.701 -11.375)"/><path d="M19.445,23.889A2.445,2.445,0,1,0,17,21.445,2.448,2.448,0,0,0,19.445,23.889Zm0-3.26a.815.815,0,1,1-.815.815A.815.815,0,0,1,19.445,20.63Z" transform="translate(-3.961 -4.342)"/><path d="M43.445,23.889A2.445,2.445,0,1,0,41,21.445,2.448,2.448,0,0,0,43.445,23.889Zm0-3.26a.815.815,0,1,1-.815.815A.815.815,0,0,1,43.445,20.63Z" transform="translate(-8.403 -4.342)"/></svg>