<svg xmlns="http://www.w3.org/2000/svg" width="46.464" height="50.547" viewBox="0 0 46.464 50.547"><path d="M30.241,29.048l-10.9-7.888a.843.843,0,0,0-1.177,1.177l7.89,10.906a3,3,0,0,0,2.194,1.227c.079.006.158.008.235.008a3,3,0,0,0,1.763-5.431Zm-.832,3.361a1.318,1.318,0,0,1-2-.155L22.6,25.6l6.651,4.811a1.317,1.317,0,0,1,.158,2Z" transform="translate(-4.877 -3.309)"/><path d="M47.627,21.922s0-.006,0-.008,0-.006,0-.009a22.611,22.611,0,0,0-2.249-5.423c-.008-.018-.008-.036-.019-.054s-.026-.026-.037-.042a22.835,22.835,0,0,0-3-4.051l1.809-1.809,1.192,1.191,3.574-3.574L45.314,4.569,41.739,8.143,42.93,9.334l-1.809,1.809a22.876,22.876,0,0,0-4.051-3c-.016-.011-.025-.027-.042-.037s-.037-.009-.054-.019a22.585,22.585,0,0,0-5.422-2.249l-.009,0h-.008A22.6,22.6,0,0,0,28.183,5.2V4.212h1.264a2.106,2.106,0,0,0,0-4.212H21.864a2.106,2.106,0,1,0,0,4.212h1.264V5.2a22.563,22.563,0,0,0-3.351.631h-.008l-.009,0a22.619,22.619,0,0,0-5.422,2.249c-.018.008-.037.008-.055.019s-.026.026-.042.037a22.865,22.865,0,0,0-4.051,3L8.38,9.334,9.571,8.143,6,4.569,2.423,8.143,6,11.717l1.192-1.191L9,12.334a22.83,22.83,0,0,0-3,4.051c-.011.016-.028.025-.037.042s-.009.036-.019.054A22.577,22.577,0,0,0,3.689,21.9s0,.006,0,.009,0,.006,0,.008a22.693,22.693,0,0,0,0,11.757s0,.006,0,.008,0,.008.005.012a22.59,22.59,0,0,0,2.248,5.42c.008.018.008.036.019.054s.035.043.051.066a22.911,22.911,0,0,0,3.531,4.595c.013.016.019.035.034.051s.035.02.051.034a22.875,22.875,0,0,0,4.618,3.544c.016.011.025.027.042.037s.053.021.079.033a22.6,22.6,0,0,0,5.4,2.235l.009,0,.013,0a22.7,22.7,0,0,0,11.749,0,.065.065,0,0,0,.013,0l.009,0a22.619,22.619,0,0,0,5.4-2.235.713.713,0,0,0,.079-.033c.017-.01.026-.026.042-.037a22.9,22.9,0,0,0,4.618-3.544c.016-.013.035-.019.051-.034s.02-.035.034-.051A22.911,22.911,0,0,0,45.3,39.24a.8.8,0,0,0,.051-.066c.01-.018.009-.036.019-.054a22.59,22.59,0,0,0,2.248-5.42s0-.008.005-.012,0-.006,0-.008a22.705,22.705,0,0,0,0-11.757ZM45.314,6.951,46.5,8.143,45.314,9.334,44.122,8.143ZM4.805,8.143,6,6.951,7.189,8.143,6,9.334ZM44.153,33.63l1.613.432a20.929,20.929,0,0,1-1.472,3.528l-1.438-.831a.842.842,0,1,0-.842,1.459l1.435.828a21.139,21.139,0,0,1-2.327,3.029l-1.17-1.17A.842.842,0,0,0,38.76,42.1l1.17,1.17A21.138,21.138,0,0,1,36.9,45.594l-.828-1.435A.842.842,0,1,0,34.614,45l.831,1.438a20.9,20.9,0,0,1-3.528,1.472L31.484,46.3a.843.843,0,0,0-1.628.436l.43,1.607a21.018,21.018,0,0,1-3.789.5V47.177a.842.842,0,1,0-1.685,0v1.664a21.018,21.018,0,0,1-3.789-.5l.43-1.607a.843.843,0,0,0-1.628-.436l-.432,1.612a20.929,20.929,0,0,1-3.528-1.472L16.7,45a.842.842,0,1,0-1.459-.842l-.828,1.435a21.139,21.139,0,0,1-3.029-2.327l1.17-1.17a.842.842,0,0,0-1.191-1.191l-1.17,1.17a21.138,21.138,0,0,1-2.327-3.029L9.3,38.218a.842.842,0,1,0-.842-1.459l-1.438.831a20.9,20.9,0,0,1-1.472-3.528l1.613-.432A.843.843,0,0,0,6.721,32l-1.608.43a21.094,21.094,0,0,1-.5-3.789H6.279a.842.842,0,1,0,0-1.685H4.615a21.018,21.018,0,0,1,.5-3.789l1.608.431a.855.855,0,0,0,.219.029.842.842,0,0,0,.217-1.656L5.544,21.54a20.929,20.929,0,0,1,1.472-3.528l1.438.831a.83.83,0,0,0,.42.113A.842.842,0,0,0,9.3,17.383l-1.435-.828a21.138,21.138,0,0,1,2.327-3.029l1.17,1.17A.842.842,0,0,0,12.549,13.5l-1.17-1.17a21.2,21.2,0,0,1,3.029-2.327l.828,1.436A.842.842,0,1,0,16.7,10.6l-.831-1.439A20.9,20.9,0,0,1,19.393,7.69L19.825,9.3a.842.842,0,0,0,.813.624.855.855,0,0,0,.219-.029.843.843,0,0,0,.6-1.032l-.43-1.608a20.9,20.9,0,0,1,3.033-.452c.261-.019.5-.034.725-.045h.032V8.424a.842.842,0,1,0,1.685,0V6.761h.032c.228.011.463.025.725.045a21,21,0,0,1,3.033.452l-.43,1.608a.843.843,0,0,0,.6,1.032.855.855,0,0,0,.219.029.843.843,0,0,0,.813-.624l.432-1.613a20.93,20.93,0,0,1,3.528,1.472L34.615,10.6a.842.842,0,1,0,1.459.842l.828-1.436a21.2,21.2,0,0,1,3.029,2.327l-1.17,1.17A.842.842,0,1,0,39.952,14.7l1.17-1.17a21.138,21.138,0,0,1,2.327,3.029l-1.435.828a.842.842,0,1,0,.842,1.459l1.438-.831a20.9,20.9,0,0,1,1.472,3.528l-1.613.433a.842.842,0,0,0,.217,1.656.855.855,0,0,0,.219-.029l1.608-.431a21.018,21.018,0,0,1,.5,3.789H45.031a.842.842,0,0,0,0,1.685H46.7a21.037,21.037,0,0,1-.5,3.79L44.589,32a.842.842,0,1,0-.436,1.627ZM24.813,5.073V2.527H21.864a.421.421,0,1,1,0-.842h7.582a.421.421,0,0,1,0,.842H26.5V5.073c-.295-.013-.572-.019-.842-.019S25.108,5.061,24.813,5.073Z" transform="translate(-2.423)"/></svg>