<svg xmlns="http://www.w3.org/2000/svg" width="47.157" height="54.359" viewBox="0 0 47.157 54.359"><g transform="translate(0 0)"><path d="M67.351,9.362,50.756.376a3.5,3.5,0,0,0-4.592,1.377L36.457,19.791H24.65a2.66,2.66,0,0,0-2.689,2.689V51.67a2.66,2.66,0,0,0,2.689,2.689H62.366a2.66,2.66,0,0,0,2.689-2.689V44.848h1.115A1.036,1.036,0,0,0,67.22,43.8V35.993a1.036,1.036,0,0,0-1.049-1.049H65.056V27.269a2.737,2.737,0,0,0-2.1-2.624l5.772-10.692A3.439,3.439,0,0,0,67.351,9.362Zm-11.807-4L45.181,24.58H42.229L53.314,4.18ZM48.067,2.737a1.29,1.29,0,0,1,1.705-.525l1.64.918L39.868,24.58H36.26ZM23.994,22.415a.633.633,0,0,1,.59-.525H35.276l-1.443,2.624H24.585a1.816,1.816,0,0,0-.59.066Zm38.9,29.255a.588.588,0,0,1-.59.59H24.585a.588.588,0,0,1-.59-.59v-24.4a.588.588,0,0,1,.59-.59h37.65a.588.588,0,0,1,.59.59v7.674h-4a3.149,3.149,0,0,0-3.148,3.148V41.7a3.149,3.149,0,0,0,3.148,3.148h4.067Zm2.1-14.627h.066v5.707H58.824A1.036,1.036,0,0,1,57.775,41.7V38.092a1.036,1.036,0,0,1,1.049-1.049ZM66.827,12.9,60.53,24.58H47.542L57.381,6.41,66.3,11.264A1.147,1.147,0,0,1,66.827,12.9Z" transform="translate(-21.961 0)"/></g><g transform="translate(35.543 11.333)"><path d="M244.031,69.7l-.525-.262a2.871,2.871,0,0,0-3.8,1.115l-.656,1.246a2.763,2.763,0,0,0-.2,2.165,2.642,2.642,0,0,0,1.377,1.64l.525.262a2.986,2.986,0,0,0,1.312.328,2.95,2.95,0,0,0,2.493-1.443l.656-1.246A2.939,2.939,0,0,0,244.031,69.7Zm-.722,2.821-.656,1.246a.74.74,0,0,1-.984.262l-.525-.328a.964.964,0,0,1-.328-.394.5.5,0,0,1,.066-.525l.656-1.246a.87.87,0,0,1,.656-.394.591.591,0,0,1,.328.066l.525.262A1.02,1.02,0,0,1,243.31,72.517Z" transform="translate(-238.71 -69.108)"/></g></svg>