<svg xmlns="http://www.w3.org/2000/svg" width="49.712" height="50.514" viewBox="0 0 49.712 50.514"><path d="M450.405,456a2.405,2.405,0,1,0,2.405,2.405A2.409,2.409,0,0,0,450.405,456Zm0,3.207a.8.8,0,1,1,.8-.8A.8.8,0,0,1,450.405,459.207Zm0,0" transform="translate(-403.099 -410.297)"/><path d="M4.811,2.405A2.405,2.405,0,1,0,2.405,4.811,2.409,2.409,0,0,0,4.811,2.405Zm-3.207,0a.8.8,0,1,1,.8.8A.8.8,0,0,1,1.6,2.405Zm0,0"/><path d="M79.066,38.973l-1.584-3.167a17.767,17.767,0,0,0,.86-2.056l3.352-1.118V23.458L78.342,22.34a17.632,17.632,0,0,0-.86-2.056l1.585-3.17L72.58,10.627l-3.17,1.585a17.633,17.633,0,0,0-2.056-.86L66.237,8H57.062l-1.118,3.352a17.631,17.631,0,0,0-2.056.86l-3.17-1.585-6.487,6.487,1.585,3.17a17.632,17.632,0,0,0-.86,2.056L41.6,23.458v9.174l3.352,1.117a17.549,17.549,0,0,0,.852,2.039l-1.031,1.878H40V53.7h5.613V51.3H51.7L54.1,53.7h4.341v.8a3.207,3.207,0,1,0,6.414,0v-.8H70.47a2.4,2.4,0,0,0,1.78-4.009,2.369,2.369,0,0,0,0-3.207,2.388,2.388,0,0,0,.588-1.237Zm-31.64-3.54a16.05,16.05,0,0,1-1.07-2.559l-.123-.39-3.025-1.009V24.613l3.025-1.008.123-.39a15.926,15.926,0,0,1,1.07-2.558l.189-.363-1.431-2.863,4.852-4.852L53.9,14.01l.363-.188a15.958,15.958,0,0,1,2.558-1.07l.39-.123L58.218,9.6h6.862l1.008,3.025.39.123a15.926,15.926,0,0,1,2.558,1.07l.363.189,2.863-1.431,4.852,4.852-1.431,2.863.188.363a15.959,15.959,0,0,1,1.07,2.558l.123.39,3.026,1.01v6.862l-3.025,1.008-.123.39a16.05,16.05,0,0,1-1.07,2.559l-.188.363,1.433,2.865-4.738,4.774c-.041-.054-.084-.106-.129-.156a2.385,2.385,0,0,0-1.559-3.987,14.435,14.435,0,1,0-18.107-.022H45.726l1.9-3.457ZM71.272,48.09a.8.8,0,0,1-.8.8H64.055a.8.8,0,0,1,0-1.6H70.47A.8.8,0,0,1,71.272,48.09ZM59.714,28.045h3.871l1.272-1.272V23.234a1.605,1.605,0,0,1,1.6,1.6v3.677l-2.737,2.737H59.576l-2.737-2.737V24.838a1.605,1.605,0,0,1,1.6-1.6v3.539Zm.332,4.811h3.207v3.207H60.046Zm4.811-.47,3.207-3.207V24.838a3.21,3.21,0,0,0-3.207-3.207h-1.6v4.479l-.332.332H60.378l-.332-.332V21.631h-1.6a3.21,3.21,0,0,0-3.207,3.207v4.341l3.207,3.207v3.677H56.506l-.051.051a9.617,9.617,0,1,1,10.474-.051H64.856Zm8.018-4.341a11.225,11.225,0,1,0-17.586,9.236l-1.155,1.155a12.826,12.826,0,1,1,15.5-.348,2.387,2.387,0,0,0-.8-1.427,11.151,11.151,0,0,0,4.044-8.616Zm-2.4,12.829a.8.8,0,1,1,0,1.6H64.055a.8.8,0,1,1,0-1.6Zm-6.415,4.811a.8.8,0,1,1,0-1.6H70.47a.8.8,0,1,1,0,1.6ZM44.009,52.1H41.6V39.27h2.405Zm10.756,0L52.36,49.694H45.613v-8.82h8.35l3.207-3.207H67.262a.8.8,0,1,1,0,1.6h-8.35L55.47,42.713,56.6,43.846l1.839-1.839V52.1Zm6.884,4.009a1.605,1.605,0,0,1-1.6-1.6V40.874H61.8a2.331,2.331,0,0,0,.478,2.405,2.369,2.369,0,0,0,0,3.207,2.369,2.369,0,0,0,0,3.207,2.383,2.383,0,0,0,.978,3.861V54.5a1.605,1.605,0,0,1-1.6,1.6ZM70.47,52.1H64.055a.8.8,0,1,1,0-1.6H70.47a.8.8,0,0,1,0,1.6Zm0,0" transform="translate(-35.991 -7.198)"/><path d="M16,72h1.6v1.6H16Zm0,0" transform="translate(-14.396 -64.784)"/><path d="M16,112h1.6v1.6H16Zm0,0" transform="translate(-14.396 -100.775)"/><path d="M16,152h1.6v1.6H16Zm0,0" transform="translate(-14.396 -136.766)"/><path d="M464,336h1.6v1.6H464Zm0,0" transform="translate(-417.495 -302.324)"/><path d="M464,376h1.6v1.6H464Zm0,0" transform="translate(-417.495 -338.315)"/><path d="M464,416h1.6v1.6H464Zm0,0" transform="translate(-417.495 -374.306)"/></svg>