<svg xmlns="http://www.w3.org/2000/svg" width="45.472" height="45.472" viewBox="0 0 45.472 45.472"><g transform="translate(0 25.009)"><path d="M42,264h-.027a3.425,3.425,0,0,0-2.331.909l-8.211,7.579a2.269,2.269,0,0,1-1.543.606H18.373a1.516,1.516,0,1,1,0-3.031h7.968a3.031,3.031,0,0,0,0-6.063H13.976a9.838,9.838,0,0,0-5.222,1.5L6.063,267.18v-.909H0v18.189H6.063v-1.516H22.041a9.867,9.867,0,0,0,1.5-.114l6.222-.957a9.79,9.79,0,0,0,5.468-2.771l9.235-9.237a3.414,3.414,0,0,0,1.007-2.43A3.455,3.455,0,0,0,42,264ZM4.547,282.943H1.516V267.786H4.547Zm38.845-14.149v0l-9.235,9.237a8.288,8.288,0,0,1-4.627,2.345l-6.222.957a8.381,8.381,0,0,1-1.268.1H6.063V268.964l3.5-2.184a8.326,8.326,0,0,1,4.418-1.267H26.341a1.516,1.516,0,1,1,0,3.031H18.373a3.031,3.031,0,0,0,0,6.063H29.887a3.78,3.78,0,0,0,2.571-1l8.211-7.579a1.962,1.962,0,0,1,1.364-.509,1.921,1.921,0,0,1,1.359,3.28Z" transform="translate(0 -263.997)"/></g><g transform="translate(11.368 0)"><path d="M142.584,7.882a.758.758,0,0,0-.606-.3h-7.066l-2.84-7.1a.758.758,0,0,0-1.407,0l-2.841,7.1h-7.066a.758.758,0,0,0-.455,1.364l5.614,4.21-2.84,7.806a.758.758,0,0,0,1.185.851l7.079-5.664,6.343,5.638a.758.758,0,0,0,1.235-.765l-2.137-7.836,5.651-4.239A.758.758,0,0,0,142.584,7.882Zm-7.124,4.4a.758.758,0,0,0-.277.806l1.6,5.877-4.915-4.369a.758.758,0,0,0-.977-.026l-5.47,4.376,2.109-5.8a.758.758,0,0,0-.258-.865L123.031,9.1h5.305a.758.758,0,0,0,.7-.477l2.327-5.82,2.327,5.82a.758.758,0,0,0,.7.477H139.7Z" transform="translate(-120 -0.001)"/></g><g transform="translate(13.864 1.738)"><g transform="translate(0 0)"><rect width="1.516" height="4.287" transform="translate(0 1.072) rotate(-45)"/></g></g><g transform="translate(27.505 1.737)"><g transform="translate(0 0)"><rect width="4.287" height="1.516" transform="translate(0 3.032) rotate(-45)"/></g></g><g transform="translate(9.558 13.41)"><g transform="translate(0)"><rect width="4" height="2" transform="translate(0.467 -0.169)"/></g></g><g transform="translate(31.374 13.41)"><g transform="translate(0)"><rect width="4" height="2" transform="translate(-0.349 -0.169)"/></g></g><g transform="translate(21.889 18.153)"><g transform="translate(0 0)"><rect width="2" height="5" transform="translate(0.136 0.088)"/></g></g></svg>