<svg xmlns="http://www.w3.org/2000/svg" width="41.808" height="48.001" viewBox="0 0 41.808 48.001"><path d="M39.161,36.837l-7.943-3.249a2.313,2.313,0,0,1-1.443-2.15v-.556a14.331,14.331,0,0,0,5.233-6.655h.187a3.875,3.875,0,0,0,3.871-3.871V13.7A12.7,12.7,0,0,0,26.366,1H23.717A13.651,13.651,0,0,0,12.146,7.352l-2.013,3.163.81.538a4.034,4.034,0,0,1,1.8,3.363v5.939a3.875,3.875,0,0,0,3.871,3.871H16.8a14.327,14.327,0,0,0,5.233,6.655v.556a2.312,2.312,0,0,1-1.443,2.149l-7.943,3.249A12.264,12.264,0,0,0,5,48.227V49H46.808v-.774A12.262,12.262,0,0,0,39.161,36.837Zm-6.356,2.536-3.147,2.361,2.086-6.258.441.18ZM19.623,35.656l.441-.18,2.086,6.258L19,39.373Zm2.606,6.317,1.827,5.48H23.9l-3.2-3.2Zm-.738-7.109c.114-.059.225-.122.331-.19L25.9,39.338l4.082-4.665c.106.069.218.131.331.19l-4.2,12.589h-.434Zm8.088,7.109L31.1,44.258l-3.2,3.2h-.154Zm.2-26.263a3.087,3.087,0,0,0-2.666,1.548H24.7a3.087,3.087,0,0,0-2.666-1.548H17.387V11.854a17.071,17.071,0,0,1,6.267,1.468,18.642,18.642,0,0,0,7.611,1.614H34.42v.774Zm3.1,1.548v1.548a1.55,1.55,0,0,1-1.548,1.548H29.775a1.548,1.548,0,0,1,0-3.1Zm-9.291,1.548a1.55,1.55,0,0,1-1.548,1.548H20.484a1.55,1.55,0,0,1-1.548-1.548V17.259h3.1A1.55,1.55,0,0,1,23.581,18.807Zm11.934,3.839a14.379,14.379,0,0,0,.454-3.567v-.9a2.31,2.31,0,0,1-.454,4.47ZM12.24,10.089l1.212-1.905A12.11,12.11,0,0,1,23.717,2.548h2.649A11.151,11.151,0,0,1,37.517,13.7v3.578a3.834,3.834,0,0,0-1.548-.715V13.387h-4.7a17.087,17.087,0,0,1-6.983-1.482,18.7,18.7,0,0,0-7.669-1.615h-.774v6.272a3.844,3.844,0,0,0-1.548.715V14.416a5.581,5.581,0,0,0-2.051-4.328Zm2.051,10.267a2.319,2.319,0,0,1,1.548-2.18v.9a14.385,14.385,0,0,0,.454,3.568A2.318,2.318,0,0,1,14.291,20.355Zm3.1-1.277v-.272a3.1,3.1,0,0,0,3.1,3.1h1.548a3.1,3.1,0,0,0,3.1-3.1h1.548a3.1,3.1,0,0,0,3.1,3.1h1.548a3.1,3.1,0,0,0,3.1-3.1v.272A12.8,12.8,0,0,1,25.9,31.15a12.8,12.8,0,0,1-8.516-12.072ZM25.659,32.7l.245.082.245-.081a14.47,14.47,0,0,0,2.105-.892,3.848,3.848,0,0,0,.622,1.778l-2.972,3.4-2.973-3.4a3.856,3.856,0,0,0,.622-1.778,14.394,14.394,0,0,0,2.106.892ZM13.234,38.271l4.7-1.925-.617,3.7,2.887,2.165-1.5,2.241,3,3H14.291V42.808H12.742v4.645H6.576a10.714,10.714,0,0,1,6.658-9.182Zm25.832,9.182V42.808H37.517v4.645H30.1l3-3-1.5-2.241,2.887-2.165-.617-3.7,4.7,1.925a10.715,10.715,0,0,1,6.658,9.182H39.066Z" transform="translate(-5 -1)"/><path d="M34.194,32H32.645a1.548,1.548,0,1,1-3.1,0H28a3.1,3.1,0,1,0,6.194,0Z" transform="translate(-10.193 -7.999)"/><path d="M37.267,8.312a8.119,8.119,0,0,1,1.638,1.768l1.281-.871A9.624,9.624,0,0,0,32.236,5H31V6.548h1.236A8.091,8.091,0,0,1,37.267,8.312Z" transform="translate(-10.87 -1.903)"/><path d="M42.641,14.624l1.514-.325a9.637,9.637,0,0,0-.526-1.684l-1.429.6A8.133,8.133,0,0,1,42.641,14.624Z" transform="translate(-13.399 -3.622)"/></svg>