<svg xmlns="http://www.w3.org/2000/svg" width="48.003" height="47.992" viewBox="0 0 48.003 47.992"><path d="M44.356,47.456V19.166a3.1,3.1,0,0,0,3.13-5.341L26.837,1.509a3.643,3.643,0,0,0-3.672,0L2.518,13.823a3.1,3.1,0,0,0-1.085,4.243,3.092,3.092,0,0,0,4.213,1.1V33.52H4.871a2.325,2.325,0,0,0-2.323,2.323V46.682a2.3,2.3,0,0,0,.142.774H1V49H49V47.456ZM2.764,17.276a1.551,1.551,0,0,1,.545-2.123L23.958,2.839a2.065,2.065,0,0,1,2.084,0L46.694,15.155a1.55,1.55,0,0,1,.542,2.122,1.593,1.593,0,0,1-2.12.543L26.836,6.927a3.589,3.589,0,0,0-3.671,0L4.887,17.819a1.59,1.59,0,0,1-2.123-.543Zm4.429.971L23.958,8.258a2.068,2.068,0,0,1,2.086,0l16.764,9.988v29.21h-3.1V21.133H10.29V33.52h-3.1ZM25,38.165H21.129V35.843a2.319,2.319,0,0,0-1.548-2.18V31.2a.775.775,0,0,1,.774-.774h2.323v3.1h4.645v-3.1h2.323a.775.775,0,0,1,.774.774v6.194a.774.774,0,0,1-.774.774H25Zm-.774-7.742h1.548v1.548H24.226Zm7.742,9.291h1.548v1.548H31.968Zm-.142-1.548a2.3,2.3,0,0,0,.142-.774V31.2a2.325,2.325,0,0,0-2.323-2.323H20.355A2.325,2.325,0,0,0,18.033,31.2V33.52H11.839V27.326H38.162V38.308a2.3,2.3,0,0,0-.774-.142Zm6.336-12.387H11.839v-3.1H38.162ZM10.29,35.068h3.1v3.1h-3.1ZM4.871,47.456a.775.775,0,0,1-.774-.774V35.843a.775.775,0,0,1,.774-.774H8.742v4.645h6.194V35.068h3.871a.775.775,0,0,1,.774.774V46.682a.775.775,0,0,1-.774.774Zm16.116,0a2.3,2.3,0,0,0,.142-.774V39.714H25a.775.775,0,0,1,.774.774v6.194a.775.775,0,0,1-.774.774Zm7.11,0a.775.775,0,0,1-.774-.774V40.488a.775.775,0,0,1,.774-.774H30.42v3.1h4.645v-3.1h2.323a.775.775,0,0,1,.774.774v6.194a.775.775,0,0,1-.774.774Z" transform="translate(-0.999 -1.013)"/><path d="M35.839,15H25v7.742H35.839Zm-1.548,3.1h-3.1V16.548h3.1Zm-4.645-1.548V18.1h-3.1V16.548Zm-3.1,3.1h3.1v1.548h-3.1Zm4.645,1.548V19.645h3.1v1.548Z" transform="translate(-6.418 -4.171)"/><path d="M17,57h1.548v1.548H17Z" transform="translate(-4.612 -13.654)"/><path d="M13,57h1.548v1.548H13Z" transform="translate(-3.709 -13.654)"/><path d="M21,57h1.548v1.548H21Z" transform="translate(-5.515 -13.654)"/><path d="M19.323,23.645A2.323,2.323,0,1,0,17,21.323,2.325,2.325,0,0,0,19.323,23.645Zm0-3.1a.774.774,0,1,1-.774.774A.774.774,0,0,1,19.323,20.548Z" transform="translate(-4.612 -5.074)"/><path d="M43.323,23.645A2.323,2.323,0,1,0,41,21.323,2.325,2.325,0,0,0,43.323,23.645Zm0-3.1a.774.774,0,1,1-.774.774A.775.775,0,0,1,43.323,20.548Z" transform="translate(-10.03 -5.074)"/></svg>