<svg xmlns="http://www.w3.org/2000/svg" width="48.503" height="48.503" viewBox="0 0 48.503 48.503"><g transform="translate(13.831 35.051)"><path d="M146.946,370a.947.947,0,1,0,.947.947A.948.948,0,0,0,146.946,370Z" transform="translate(-145.999 -370.002)"/></g><g transform="translate(0 0)"><path d="M42.643,18l5.583-5.583a.947.947,0,0,0-.39-1.575l-13.594-4.2a9.475,9.475,0,0,0-17.83-.713L.665,10.844a.947.947,0,0,0-.388,1.574l5.729,5.729L2.393,24.171a.947.947,0,0,0,.513,1.386L8.147,27.3v14.57a.947.947,0,0,0,.615.887c3.2,1.2,15.111,5.667,15.175,5.69a.944.944,0,0,0,.606.008l.008,0L41.6,42.773a.947.947,0,0,0,.648-.9V26.914l5.589-1.756a.947.947,0,0,0,.386-1.574ZM34.672,9.475c0-.241-.01-.481-.028-.72l11.131,3.435-4.727,4.727-7.723-2.574A9.5,9.5,0,0,0,34.672,9.475ZM18.03,7.01A7.578,7.578,0,0,1,32.777,9.475,7.578,7.578,0,0,1,25.2,17.054,7.585,7.585,0,0,1,18.03,7.01ZM2.724,12.187,15.826,8.1a9.552,9.552,0,0,0-.1,1.374,9.416,9.416,0,0,0,1.05,4.336l-9.32,3.106Zm1.9,11.946,3-4.993,15.211,5.07-3,4.993ZM23.3,46.191,10.041,41.218V27.935c10.435,3.46,9.925,3.354,10.216,3.354a.948.948,0,0,0,.813-.46L23.3,27.106Zm.947-23.5L10.2,18l7.654-2.551a9.471,9.471,0,0,0,14.274.49L38.307,18Zm16.1,18.5L25.2,46.244V26.386l3.358,4.2a.948.948,0,0,0,1.024.312l10.775-3.386Zm-10.725-12.3L25.84,24.154l15.208-5.069,4.733,4.733Z" transform="translate(0 -0.002)"/></g><g transform="translate(17.408 36.303)"><path d="M187.144,384.07l-2.107-.79a.947.947,0,0,0-.665,1.774l2.107.79a.947.947,0,1,0,.665-1.774Z" transform="translate(-183.757 -383.219)"/></g><g transform="translate(13.831 39.009)"><path d="M152.96,413.971l-5.684-2.132a.947.947,0,0,0-.665,1.774l5.684,2.132a.947.947,0,0,0,.665-1.774Z" transform="translate(-145.995 -411.779)"/></g><g transform="translate(21.41 5.684)"><path d="M235.194,60.278a.947.947,0,0,0-1.34,0l-5.014,5.014-1.225-1.225a.947.947,0,0,0-1.34,1.34L228.17,67.3a.947.947,0,0,0,1.34,0l5.684-5.684A.947.947,0,0,0,235.194,60.278Z" transform="translate(-225.998 -60.001)"/></g></svg>