<svg xmlns="http://www.w3.org/2000/svg" width="42.833" height="48.503" viewBox="0 0 42.833 48.503"><g transform="translate(13.792 9.732)"><path d="M190.715,108.232a.947.947,0,0,0-.765-.645l-4.121-.6-1.844-3.734a.947.947,0,0,0-.849-.528h0a.947.947,0,0,0-.849.528l-1.842,3.735-4.121.6a.947.947,0,0,0-.525,1.616l2.983,2.906-.7,4.1a.947.947,0,0,0,1.375,1l3.685-1.939,3.686,1.937a.947.947,0,0,0,1.374-1l-.705-4.1,2.981-2.907A.948.948,0,0,0,190.715,108.232Zm-4.9,2.87a.947.947,0,0,0-.272.839l.464,2.7-2.428-1.276a.947.947,0,0,0-.882,0l-2.427,1.277.463-2.7a.947.947,0,0,0-.273-.838l-1.965-1.914,2.714-.4a.947.947,0,0,0,.713-.518l1.213-2.46,1.215,2.459a.947.947,0,0,0,.713.518l2.714.394Z" transform="translate(-175.512 -102.728)"/></g><g transform="translate(0 0)"><path d="M72.634,41.623,64.8,28a17.241,17.241,0,1,0-26.92,0l-7.83,13.62A.947.947,0,0,0,31,43.034l6.112-.821,2.345,5.7a.947.947,0,0,0,.813.585l.063,0a.947.947,0,0,0,.82-.474l7.9-13.692,0-.006a17.285,17.285,0,0,0,4.564,0l0,.006,7.9,13.692a.947.947,0,0,0,.82.474l.063,0a.947.947,0,0,0,.813-.585l2.345-5.7,6.112.821a.947.947,0,0,0,.947-1.411Zm-32.158,3.79L38.77,41.262l1.532-2.5a.947.947,0,1,0-1.615-.99L37.138,40.3l-4.484.6,6.563-11.415a17.241,17.241,0,0,0,7.876,4.467ZM51.344,32.588A15.347,15.347,0,1,1,66.691,17.241,15.364,15.364,0,0,1,51.344,32.588ZM65.55,40.3,64,37.772a.947.947,0,0,0-1.615.99l1.532,2.5-1.707,4.151L55.594,33.952a17.24,17.24,0,0,0,7.876-4.467L70.033,40.9Z" transform="translate(-29.928 0)"/></g><g transform="translate(14.902 4.926)"><path d="M193.742,52a12.321,12.321,0,0,0-6.032,1.576.947.947,0,0,0,.929,1.651A10.425,10.425,0,0,1,203.152,68.8a.947.947,0,1,0,1.71.816,12.206,12.206,0,0,0,1.2-5.3A12.329,12.329,0,0,0,193.742,52Z" transform="translate(-187.227 -52)"/></g><g transform="translate(28.601 24.214)"><path d="M333.473,255.866a.947.947,0,0,0-1.34.02l-.021.022a.947.947,0,1,0,1.356,1.324l.025-.026A.947.947,0,0,0,333.473,255.866Z" transform="translate(-331.843 -255.598)"/></g><g transform="translate(9.101 11.586)"><path d="M144.62,137.467a.947.947,0,0,0-1.287-.372,10.425,10.425,0,0,1-14.51-13.448.947.947,0,1,0-1.724-.785,12.319,12.319,0,0,0,17.148,15.893A.947.947,0,0,0,144.62,137.467Z" transform="translate(-125.996 -122.306)"/></g><g transform="translate(12.131 8.546)"><path d="M159.6,90.47a.947.947,0,0,0-1.339.047l-.021.023a.947.947,0,1,0,1.391,1.287l.017-.018A.947.947,0,0,0,159.6,90.47Z" transform="translate(-157.984 -90.216)"/></g></svg>