<svg xmlns="http://www.w3.org/2000/svg" width="41.995" height="41.995" viewBox="0 0 41.995 41.995"><path d="M41.082,0H.913A.913.913,0,0,0,0,.913V41.082A.913.913,0,0,0,.913,42H6.391a.913.913,0,0,0,.913-.913v-.913H33.779a.911.911,0,0,0,.645-.267L39.9,34.424a.911.911,0,0,0,.267-.645V7.3h.913A.913.913,0,0,0,42,6.391V.913A.913.913,0,0,0,41.082,0ZM5.478,40.169H1.826V7.3H5.478Zm0-34.692H1.826V1.826H5.478ZM38.344,33.4,33.4,38.344h-.535V32.866h5.478Zm0-2.361H31.953a.913.913,0,0,0-.913.913v6.391H7.3V21.911h4.565a.913.913,0,0,0,0-1.826H7.3V7.3H20.085v4.565a.913.913,0,0,0,1.826,0V7.3H38.344ZM40.169,5.478H7.3V1.826H40.169Z"/><g transform="translate(16.433 16.433)"><path d="M148.565,144a.913.913,0,0,0-.913.913v2.739h-2.739a.913.913,0,0,0,0,1.826h3.652a.913.913,0,0,0,.913-.913v-3.652A.913.913,0,0,0,148.565,144Z" transform="translate(-144 -144)"/></g></svg>